<svg width="64" height="64" viewBox="0 0 280 262" fill="none" xmlns="http://www.w3.org/2000/svg">
<path d="M276.005 130.494L269.206 129.53L241.938 49.672L154.042 8.79102L64.2359 40.723L63.339 38.495L53.1049 37.044L46.731 45.182L50.591 54.771L60.825 56.222L67.199 48.084L66.104 45.364L153.789 14.187L237.894 53.306L264.367 130.833L259.396 137.18L263.255 146.769L273.489 148.22L279.864 140.082L276.005 130.494ZM59.1 51.936L53.4389 51.133L51.304 45.83L54.83 41.328L60.491 42.131L62.627 47.434L59.1 51.936ZM271.767 143.936L266.105 143.133L263.97 137.83L267.171 133.744L268.126 133.417L273.157 134.131L275.294 139.434L271.767 143.936Z" fill="#101C42"/>
<path d="M243.491 61.888L233.257 60.437L229.398 50.848L235.771 42.71L246.005 44.161L249.866 53.75L243.491 61.888Z" fill="#FF8E27"/>
<path d="M153.015 21.259L144.576 15.29L145.527 4.99701L154.916 0.673004L163.354 6.64201L162.405 16.936L153.015 21.259Z" fill="#00BBDD"/>
<path d="M95.9643 160.324L58.6145 197.928L66.419 205.68L103.769 168.076L95.9643 160.324Z" fill="#101C42"/>
<path d="M52.6093 185.431L0.136597 237.607L24.8151 262.426L77.2878 210.249L52.6093 185.431Z" fill="#F5A530"/>
<path d="M6.948 244.569L59.405 192.521L71.615 204.902L19.615 257.569L6.948 244.569Z" fill="#FF8E27"/>
<path d="M228.114 128.186C228.114 176.235 189.163 215.186 141.114 215.186C93.067 215.186 54.116 176.235 54.116 128.186C54.116 80.137 93.067 41.186 141.114 41.186C189.163 41.187 228.114 80.138 228.114 128.186Z" fill="#101C42"/>
<path d="M213.114 128.186C213.114 167.951 180.88 200.186 141.114 200.186C101.351 200.186 69.116 167.951 69.116 128.186C69.116 88.421 101.351 56.186 141.114 56.186C180.88 56.186 213.114 88.422 213.114 128.186Z" fill="#00BBDD"/>
<path d="M141.948 210.186C97.01 210.186 60.449 173.626 60.449 128.686C60.449 83.747 97.01 47.186 141.948 47.186C186.887 47.186 223.448 83.747 223.448 128.686C223.448 173.626 186.888 210.186 141.948 210.186ZM141.948 49.186C98.112 49.186 62.449 84.849 62.449 128.686C62.449 172.523 98.112 208.186 141.948 208.186C185.784 208.186 221.448 172.523 221.448 128.686C221.448 84.849 185.784 49.186 141.948 49.186Z" fill="white"/>
<path d="M121.084 116.015H88.981V136.64H121.084V116.015Z" fill="white"/>
<path d="M121.084 92.012H88.981V112.637H121.084V92.012Z" fill="white"/>
<path d="M89.281 140.764V178.13C97.835 187.006 108.639 193.687 120.783 197.256V140.764H89.281Z" fill="white"/>
<path d="M155.949 92.012H123.846V112.637H155.949V92.012Z" fill="#101C42"/>
<path d="M155.949 65.759H123.846V86.384H155.949V65.759Z" fill="#101C42"/>
<path d="M123.584 116.387V199.027C129.197 200.431 135.068 201.187 141.114 201.187C146.294 201.187 151.341 200.628 156.21 199.589V116.387H123.584Z" fill="#101C42"/>
<path d="M192.115 92.012H160.011V112.637H192.115V92.012Z" fill="#F5A530"/>
<path d="M192.115 39.759H160.011V86.384H192.115V39.759Z" fill="#F5A530"/>
<path d="M160.011 116.784V197.663C172.339 194.318 183.357 187.794 192.115 179.007V116.784H160.011Z" fill="#F5A530"/>
</svg>
